<?xml version="1.0" encoding="UTF-8"?>
<svg xmlns="http://www.w3.org/2000/svg" xmlns:xlink="http://www.w3.org/1999/xlink" width="62px" height="56px" viewBox="0 0 61 56" version="1.1">
<g id="surface1">
<path style=" stroke:none;fill-rule:nonzero;fill:rgb(0%,0%,0%);fill-opacity:1;" d="M 30.375 10.910156 C 29.8125 10.984375 29.402344 11.113281 28.90625 11.363281 C 28.378906 11.636719 28.078125 11.910156 27.910156 12.261719 C 27.75 12.605469 27.761719 12.890625 27.957031 13.371094 C 28.003906 13.484375 28.039062 13.585938 28.03125 13.589844 C 28.027344 13.589844 27.960938 13.597656 27.878906 13.601562 C 26.472656 13.675781 25.34375 13.777344 24.382812 13.917969 C 24.214844 13.945312 24.035156 13.96875 23.984375 13.976562 C 23.933594 13.980469 23.746094 14.011719 23.570312 14.042969 C 23.390625 14.070312 23.214844 14.097656 23.171875 14.105469 C 22.628906 14.183594 21.789062 14.367188 20.753906 14.632812 C 19.429688 14.96875 18.613281 15.230469 17.585938 15.648438 C 17.28125 15.773438 16.964844 15.910156 16.714844 16.019531 C 15.414062 16.609375 13.929688 17.550781 13.058594 18.347656 C 12.386719 18.960938 12.03125 19.347656 11.839844 19.683594 C 11.726562 19.878906 11.78125 20.121094 11.96875 20.257812 C 12.066406 20.332031 12.203125 20.371094 12.304688 20.351562 C 12.4375 20.332031 12.585938 20.210938 12.777344 19.964844 C 13.269531 19.34375 14.023438 18.683594 14.925781 18.078125 C 16.304688 17.152344 17.640625 16.53125 19.589844 15.898438 C 20.636719 15.5625 22.242188 15.175781 23.355469 14.992188 C 23.808594 14.921875 24.464844 14.824219 24.667969 14.796875 C 24.710938 14.792969 24.871094 14.769531 25.027344 14.75 C 25.527344 14.683594 26.585938 14.578125 26.988281 14.554688 C 27.09375 14.546875 27.292969 14.535156 27.429688 14.527344 C 27.8125 14.5 28.050781 14.488281 28.722656 14.46875 C 29.058594 14.457031 29.34375 14.445312 29.351562 14.441406 C 29.375 14.425781 31.246094 14.429688 31.53125 14.441406 C 31.648438 14.449219 31.988281 14.460938 32.289062 14.46875 C 32.917969 14.492188 33.15625 14.5 33.527344 14.527344 C 34.121094 14.566406 34.089844 14.5625 34.632812 14.628906 C 34.851562 14.65625 35.21875 14.695312 35.445312 14.722656 C 35.996094 14.78125 36.375 14.832031 36.601562 14.878906 C 36.703125 14.898438 36.824219 14.921875 36.867188 14.925781 C 37.316406 14.984375 38.429688 15.210938 39.078125 15.375 C 40.660156 15.78125 41.964844 16.21875 42.898438 16.652344 C 42.972656 16.683594 43.066406 16.726562 43.113281 16.75 C 44.03125 17.167969 44.457031 17.390625 45.246094 17.871094 C 46.171875 18.429688 47.183594 19.1875 47.742188 19.734375 C 48.019531 20.007812 48.296875 20.15625 48.511719 20.15625 C 48.597656 20.15625 48.644531 20.140625 48.757812 20.082031 C 48.941406 19.984375 48.984375 19.925781 48.984375 19.773438 L 48.984375 19.660156 L 48.734375 19.410156 C 47.746094 18.433594 46.382812 17.429688 45.007812 16.671875 C 44.664062 16.480469 43.867188 16.082031 43.65625 15.992188 C 43.597656 15.96875 43.476562 15.914062 43.390625 15.878906 C 43.238281 15.8125 42.757812 15.613281 42.363281 15.453125 C 41.734375 15.199219 40.8125 14.902344 40.09375 14.714844 C 39.96875 14.683594 39.773438 14.628906 39.65625 14.601562 C 38.902344 14.398438 38.335938 14.261719 37.894531 14.183594 C 37.644531 14.136719 36.832031 13.996094 36.703125 13.976562 C 36.414062 13.9375 35.230469 13.777344 35.03125 13.753906 C 34.992188 13.746094 34.722656 13.726562 34.441406 13.707031 C 33.898438 13.667969 33.28125 13.613281 33.269531 13.601562 C 33.265625 13.597656 33.289062 13.550781 33.320312 13.5 C 33.351562 13.441406 33.398438 13.335938 33.429688 13.257812 C 33.59375 12.839844 33.578125 12.511719 33.386719 12.214844 C 33.289062 12.070312 32.824219 11.613281 32.648438 11.484375 C 32.304688 11.242188 31.824219 11.042969 31.328125 10.945312 C 31.105469 10.898438 30.589844 10.878906 30.375 10.910156 Z M 31.179688 11.75 C 31.625 11.839844 32.015625 12.042969 32.347656 12.359375 C 32.507812 12.511719 32.589844 12.636719 32.609375 12.757812 C 32.625 12.839844 32.585938 12.9375 32.472656 13.109375 C 32.382812 13.242188 32.117188 13.511719 32.058594 13.539062 C 32.03125 13.546875 31.398438 13.550781 30.648438 13.546875 L 29.28125 13.546875 L 29.207031 13.496094 C 29.105469 13.425781 28.945312 13.261719 28.878906 13.15625 C 28.714844 12.886719 28.703125 12.644531 28.855469 12.449219 C 28.976562 12.289062 29.273438 12.09375 29.578125 11.964844 C 29.730469 11.902344 30.125 11.777344 30.226562 11.757812 C 30.347656 11.734375 30.507812 11.710938 30.570312 11.703125 C 30.691406 11.6875 30.984375 11.710938 31.179688 11.75 Z M 31.179688 11.75 "/>
<path style=" stroke:none;fill-rule:nonzero;fill:rgb(0%,0%,0%);fill-opacity:1;" d="M 24.546875 15.359375 C 24.316406 15.367188 23.691406 15.425781 23.179688 15.488281 C 23.054688 15.503906 22.601562 15.585938 22.425781 15.625 C 22.335938 15.644531 22.152344 15.6875 22.007812 15.714844 C 21.15625 15.902344 20.210938 16.175781 19.503906 16.4375 C 19.410156 16.476562 19.253906 16.535156 19.160156 16.570312 C 18.964844 16.640625 18.515625 16.828125 18.148438 16.980469 C 17.46875 17.269531 16.347656 17.941406 15.828125 18.367188 C 15.210938 18.875 14.753906 19.320312 14.5 19.664062 C 14.324219 19.898438 14.277344 19.988281 14.277344 20.101562 C 14.277344 20.207031 14.320312 20.265625 14.4375 20.335938 C 14.507812 20.378906 14.535156 20.382812 14.636719 20.378906 C 14.78125 20.367188 14.847656 20.324219 14.949219 20.179688 C 15.152344 19.890625 15.691406 19.332031 16.070312 19.019531 C 17.332031 17.96875 18.949219 17.203125 21.261719 16.546875 C 22.652344 16.152344 23.769531 15.980469 24.941406 15.980469 C 25.28125 15.980469 25.332031 15.976562 25.394531 15.945312 C 25.511719 15.882812 25.582031 15.78125 25.582031 15.667969 C 25.582031 15.5625 25.382812 15.398438 25.222656 15.375 C 25.136719 15.363281 24.726562 15.355469 24.546875 15.359375 Z M 24.546875 15.359375 "/>
<path style=" stroke:none;fill-rule:nonzero;fill:rgb(0%,0%,0%);fill-opacity:1;" d="M 52.699219 16.089844 C 52.324219 16.183594 52.035156 16.402344 51.855469 16.738281 C 51.734375 16.964844 51.726562 16.996094 51.691406 17.25 C 51.636719 17.679688 51.730469 17.992188 52.015625 18.328125 C 52.121094 18.449219 52.324219 18.632812 52.457031 18.722656 L 52.496094 18.75 L 52.460938 18.855469 C 52.445312 18.910156 52.421875 18.972656 52.410156 18.984375 C 52.394531 19 52.355469 19.058594 52.316406 19.117188 C 52.199219 19.289062 51.726562 19.765625 51.367188 20.0625 C 51.101562 20.285156 51.078125 20.3125 51.066406 20.410156 C 51.054688 20.484375 51.058594 20.507812 51.085938 20.527344 C 51.105469 20.539062 51.117188 20.5625 51.113281 20.578125 C 51.109375 20.601562 51.121094 20.605469 51.167969 20.59375 C 51.636719 20.515625 51.722656 20.519531 51.921875 20.628906 C 52.121094 20.738281 52.578125 21.066406 52.777344 21.246094 C 52.980469 21.429688 53.125 21.585938 53.363281 21.878906 C 53.722656 22.324219 53.898438 22.582031 54.175781 23.078125 C 54.195312 23.109375 54.25 23.199219 54.292969 23.277344 C 54.386719 23.429688 54.394531 23.449219 54.351562 23.464844 C 54.308594 23.480469 54.320312 23.53125 54.378906 23.589844 C 54.425781 23.636719 54.449219 23.644531 54.523438 23.644531 L 54.613281 23.644531 L 54.734375 23.453125 C 55.019531 22.988281 55.308594 22.59375 55.46875 22.433594 C 55.503906 22.398438 55.65625 22.234375 55.800781 22.078125 C 55.945312 21.917969 56.085938 21.769531 56.109375 21.746094 L 56.15625 21.703125 L 56.277344 21.769531 C 56.582031 21.921875 56.886719 21.953125 57.253906 21.871094 C 57.515625 21.8125 57.761719 21.679688 58.003906 21.460938 C 58.140625 21.339844 58.378906 20.902344 58.402344 20.738281 C 58.410156 20.652344 58.421875 20.628906 58.515625 20.535156 C 58.628906 20.414062 58.746094 20.203125 58.777344 20.054688 C 58.800781 19.9375 58.808594 19.636719 58.789062 19.523438 C 58.761719 19.359375 58.660156 19.144531 58.53125 18.972656 C 58.335938 18.722656 57.960938 18.488281 57.597656 18.390625 C 57.457031 18.355469 57.371094 18.34375 57.191406 18.34375 C 57.03125 18.34375 56.972656 18.335938 56.976562 18.324219 C 56.988281 18.292969 56.933594 17.949219 56.902344 17.84375 C 56.859375 17.699219 56.804688 17.578125 56.722656 17.433594 C 56.609375 17.238281 56.574219 17.1875 56.382812 16.996094 C 56.246094 16.855469 56.175781 16.800781 55.988281 16.695312 C 55.574219 16.460938 55.457031 16.414062 55.117188 16.351562 C 54.976562 16.324219 54.5 16.328125 54.304688 16.351562 C 53.972656 16.398438 53.996094 16.398438 53.921875 16.347656 C 53.789062 16.261719 53.757812 16.246094 53.59375 16.195312 C 53.128906 16.050781 52.941406 16.03125 52.699219 16.089844 Z M 53.226562 16.324219 C 53.40625 16.347656 53.699219 16.425781 53.761719 16.460938 C 53.789062 16.476562 53.78125 16.488281 53.699219 16.558594 C 53.609375 16.636719 53.609375 16.636719 53.640625 16.675781 C 53.671875 16.710938 53.675781 16.710938 53.773438 16.671875 C 54.296875 16.46875 54.941406 16.449219 55.417969 16.621094 C 56.066406 16.855469 56.550781 17.335938 56.726562 17.925781 C 56.773438 18.09375 56.777344 18.136719 56.789062 18.507812 C 56.800781 18.84375 56.8125 18.945312 56.832031 18.945312 C 56.839844 18.945312 56.863281 18.949219 56.886719 18.957031 C 56.917969 18.964844 56.933594 18.953125 56.964844 18.894531 C 56.996094 18.828125 57 18.796875 56.988281 18.648438 L 56.980469 18.480469 L 57.050781 18.480469 C 57.199219 18.480469 57.460938 18.519531 57.59375 18.566406 C 57.972656 18.691406 58.34375 18.988281 58.484375 19.28125 C 58.640625 19.601562 58.652344 19.941406 58.507812 20.183594 C 58.453125 20.28125 58.261719 20.46875 58.121094 20.570312 C 57.976562 20.671875 57.890625 20.75 57.902344 20.761719 C 57.910156 20.765625 57.96875 20.773438 58.03125 20.773438 C 58.164062 20.773438 58.167969 20.777344 58.113281 20.917969 C 58.039062 21.117188 57.800781 21.375 57.558594 21.53125 C 57.441406 21.601562 57.273438 21.664062 57.09375 21.703125 C 56.914062 21.742188 56.640625 21.714844 56.433594 21.636719 C 56.332031 21.597656 56.144531 21.492188 56.105469 21.453125 C 56.089844 21.4375 56.070312 21.425781 56.0625 21.425781 C 56.054688 21.425781 56.019531 21.386719 55.984375 21.335938 C 55.910156 21.234375 55.582031 20.71875 55.582031 20.707031 C 55.582031 20.703125 55.628906 20.695312 55.6875 20.6875 C 55.90625 20.664062 56.316406 20.558594 56.355469 20.519531 C 56.359375 20.511719 56.234375 20.515625 56.070312 20.519531 C 55.441406 20.546875 54.917969 20.457031 54.402344 20.222656 C 54.203125 20.136719 54.101562 20.074219 53.878906 19.910156 C 53.777344 19.835938 53.675781 19.765625 53.652344 19.75 C 53.515625 19.65625 53.3125 19.402344 53.21875 19.207031 C 53.1875 19.140625 53.136719 18.996094 53.113281 18.890625 C 53.066406 18.703125 53.066406 18.675781 53.074219 18.382812 C 53.082031 18.078125 53.082031 18.070312 53.050781 18.085938 C 52.949219 18.140625 52.847656 18.382812 52.847656 18.566406 L 52.847656 18.660156 L 52.660156 18.578125 C 52.4375 18.480469 52.40625 18.460938 52.285156 18.363281 C 52.210938 18.296875 52.09375 18.160156 52.019531 18.039062 C 51.957031 17.941406 51.871094 17.730469 51.851562 17.621094 C 51.824219 17.484375 51.824219 17.292969 51.851562 17.148438 C 51.875 17.023438 52.011719 16.738281 52.105469 16.632812 C 52.191406 16.53125 52.398438 16.386719 52.503906 16.351562 C 52.679688 16.296875 52.953125 16.285156 53.226562 16.324219 Z M 52.773438 18.875 C 52.867188 18.910156 52.878906 18.921875 52.894531 18.988281 C 52.925781 19.148438 53.03125 19.382812 53.152344 19.550781 C 53.222656 19.652344 53.445312 19.882812 53.59375 20.007812 C 53.976562 20.332031 54.773438 20.667969 55.230469 20.695312 L 55.421875 20.707031 L 55.535156 20.921875 C 55.648438 21.144531 55.667969 21.175781 55.871094 21.441406 C 55.933594 21.523438 55.988281 21.59375 55.988281 21.597656 C 55.988281 21.605469 55.921875 21.671875 55.84375 21.753906 C 55.621094 21.980469 55.335938 22.296875 55.226562 22.441406 C 55.171875 22.511719 55.042969 22.679688 54.941406 22.808594 C 54.832031 22.941406 54.714844 23.117188 54.667969 23.210938 C 54.578125 23.386719 54.523438 23.457031 54.480469 23.457031 C 54.445312 23.457031 54.445312 23.4375 54.480469 23.414062 C 54.5 23.394531 54.480469 23.347656 54.367188 23.140625 C 54.121094 22.6875 54.0625 22.59375 53.921875 22.375 C 53.714844 22.058594 53.257812 21.460938 53.160156 21.378906 C 53.136719 21.359375 53.050781 21.289062 52.976562 21.21875 C 52.898438 21.152344 52.816406 21.082031 52.792969 21.058594 C 52.769531 21.042969 52.71875 21 52.683594 20.964844 C 52.496094 20.804688 52.15625 20.605469 51.886719 20.503906 C 51.789062 20.464844 51.671875 20.417969 51.625 20.398438 C 51.550781 20.367188 51.511719 20.363281 51.40625 20.375 C 51.320312 20.382812 51.277344 20.394531 51.277344 20.410156 C 51.277344 20.433594 51.191406 20.511719 51.164062 20.511719 C 51.15625 20.511719 51.15625 20.492188 51.167969 20.46875 C 51.191406 20.417969 51.265625 20.355469 51.578125 20.132812 C 52.058594 19.785156 52.488281 19.304688 52.589844 19 C 52.609375 18.933594 52.628906 18.867188 52.636719 18.855469 C 52.644531 18.828125 52.660156 18.828125 52.773438 18.875 Z M 52.773438 18.875 "/>
<path style=" stroke:none;fill-rule:nonzero;fill:rgb(0%,0%,0%);fill-opacity:1;" d="M 18.757812 18.015625 C 18.476562 18.050781 18.105469 18.179688 17.808594 18.34375 C 17.261719 18.640625 16.425781 19.332031 16.285156 19.59375 C 16.214844 19.726562 16.203125 19.882812 16.253906 19.964844 C 16.300781 20.039062 16.375 20.082031 16.492188 20.09375 C 16.644531 20.113281 16.707031 20.078125 16.917969 19.871094 C 17.699219 19.105469 18.242188 18.757812 18.804688 18.664062 C 19.371094 18.570312 19.375 18.570312 19.410156 18.523438 C 19.546875 18.347656 19.476562 18.085938 19.273438 18.035156 C 19.164062 18.003906 18.902344 17.992188 18.757812 18.015625 Z M 18.757812 18.015625 "/>
<path style=" stroke:none;fill-rule:nonzero;fill:rgb(0%,0%,0%);fill-opacity:1;" d="M 8.984375 22.140625 C 8.464844 22.269531 8.179688 22.824219 8.398438 23.292969 C 8.511719 23.539062 8.714844 23.699219 9.273438 23.988281 C 9.550781 24.132812 9.613281 24.171875 9.714844 24.277344 C 9.882812 24.445312 9.921875 24.589844 9.847656 24.753906 C 9.773438 24.917969 9.609375 25.023438 9.402344 25.039062 C 8.976562 25.070312 8.570312 24.722656 8.433594 24.214844 C 8.402344 24.105469 8.394531 24.089844 8.355469 24.089844 L 8.3125 24.089844 L 8.3125 25.191406 L 8.355469 25.191406 C 8.382812 25.191406 8.410156 25.167969 8.441406 25.117188 C 8.484375 25.042969 8.5625 24.988281 8.625 24.988281 C 8.644531 24.988281 8.753906 25.023438 8.863281 25.070312 C 9.09375 25.164062 9.210938 25.191406 9.378906 25.191406 C 9.847656 25.191406 10.246094 24.902344 10.351562 24.492188 C 10.425781 24.210938 10.351562 23.9375 10.152344 23.722656 C 10.023438 23.582031 9.847656 23.46875 9.4375 23.253906 C 8.921875 22.980469 8.8125 22.886719 8.796875 22.6875 C 8.78125 22.507812 8.902344 22.347656 9.101562 22.289062 C 9.5 22.171875 9.972656 22.519531 10.085938 23.003906 C 10.105469 23.09375 10.113281 23.101562 10.15625 23.101562 L 10.203125 23.101562 L 10.191406 22.78125 C 10.183594 22.605469 10.179688 22.382812 10.179688 22.285156 C 10.179688 22.132812 10.175781 22.113281 10.144531 22.113281 C 10.121094 22.113281 10.105469 22.136719 10.089844 22.1875 C 10.042969 22.34375 9.988281 22.351562 9.730469 22.234375 C 9.648438 22.199219 9.53125 22.15625 9.46875 22.144531 C 9.332031 22.109375 9.113281 22.109375 8.984375 22.140625 Z M 8.984375 22.140625 "/>
<path style=" stroke:none;fill-rule:nonzero;fill:rgb(0%,0%,0%);fill-opacity:1;" d="M 11.617188 23.292969 C 11.332031 23.941406 11.050781 24.5625 10.996094 24.671875 C 10.886719 24.894531 10.789062 25 10.660156 25.039062 C 10.605469 25.054688 10.585938 25.074219 10.585938 25.097656 C 10.585938 25.132812 10.597656 25.136719 11.074219 25.136719 C 11.542969 25.136719 11.5625 25.132812 11.5625 25.101562 C 11.5625 25.070312 11.542969 25.0625 11.46875 25.050781 C 11.132812 25.007812 11.097656 24.878906 11.300781 24.421875 L 11.359375 24.296875 L 12.390625 24.296875 L 12.503906 24.5625 C 12.671875 24.964844 12.660156 25.035156 12.402344 25.058594 C 12.300781 25.066406 12.285156 25.074219 12.285156 25.101562 C 12.285156 25.132812 12.3125 25.136719 12.996094 25.136719 C 13.664062 25.136719 13.707031 25.132812 13.707031 25.101562 C 13.707031 25.078125 13.683594 25.0625 13.617188 25.046875 C 13.511719 25.015625 13.4375 24.941406 13.34375 24.75 C 13.300781 24.667969 13.023438 24.046875 12.726562 23.359375 C 12.425781 22.675781 12.175781 22.113281 12.164062 22.113281 C 12.152344 22.113281 11.90625 22.648438 11.617188 23.292969 Z M 12.09375 24.125 C 11.976562 24.128906 11.777344 24.128906 11.65625 24.125 L 11.4375 24.121094 L 11.621094 23.710938 C 11.71875 23.484375 11.820312 23.257812 11.84375 23.207031 L 11.878906 23.117188 L 12.097656 23.617188 L 12.3125 24.121094 Z M 12.09375 24.125 "/>
<path style=" stroke:none;fill-rule:nonzero;fill:rgb(0%,0%,0%);fill-opacity:1;" d="M 18.039062 22.144531 C 17.5 22.265625 17.078125 22.679688 16.9375 23.222656 C 16.886719 23.417969 16.882812 23.8125 16.925781 24.007812 C 17.0625 24.582031 17.464844 25.003906 18.003906 25.140625 C 18.140625 25.175781 18.214844 25.179688 18.460938 25.179688 C 18.808594 25.179688 18.957031 25.148438 19.210938 25.019531 C 19.335938 24.957031 19.402344 24.910156 19.542969 24.761719 C 19.773438 24.53125 19.878906 24.347656 19.960938 24.035156 C 20.015625 23.84375 20.007812 23.382812 19.953125 23.1875 C 19.8125 22.6875 19.441406 22.316406 18.953125 22.171875 C 18.765625 22.113281 18.234375 22.101562 18.039062 22.144531 Z M 18.738281 22.328125 C 18.789062 22.355469 18.871094 22.410156 18.914062 22.453125 C 19.007812 22.554688 19.125 22.785156 19.164062 22.96875 C 19.207031 23.179688 19.234375 23.554688 19.222656 23.832031 C 19.191406 24.445312 19.027344 24.835938 18.730469 24.980469 C 18.640625 25.027344 18.609375 25.035156 18.453125 25.035156 C 18.234375 25.03125 18.125 24.988281 17.992188 24.847656 C 17.78125 24.621094 17.675781 24.238281 17.675781 23.671875 C 17.675781 22.863281 17.867188 22.425781 18.273438 22.289062 C 18.394531 22.25 18.617188 22.269531 18.738281 22.328125 Z M 18.738281 22.328125 "/>
<path style=" stroke:none;fill-rule:nonzero;fill:rgb(0%,0%,0%);fill-opacity:1;" d="M 27.214844 22.140625 C 26.695312 22.269531 26.414062 22.824219 26.628906 23.292969 C 26.746094 23.539062 26.949219 23.699219 27.503906 23.988281 C 27.78125 24.132812 27.84375 24.171875 27.945312 24.277344 C 28.113281 24.445312 28.152344 24.589844 28.078125 24.753906 C 28.003906 24.917969 27.84375 25.023438 27.632812 25.039062 C 27.207031 25.070312 26.800781 24.722656 26.664062 24.214844 C 26.632812 24.105469 26.625 24.089844 26.585938 24.089844 L 26.542969 24.089844 L 26.542969 25.191406 L 26.585938 25.191406 C 26.613281 25.191406 26.640625 25.167969 26.671875 25.117188 C 26.71875 25.042969 26.792969 24.988281 26.855469 24.988281 C 26.878906 24.988281 26.984375 25.023438 27.09375 25.070312 C 27.324219 25.164062 27.441406 25.191406 27.609375 25.191406 C 28.078125 25.191406 28.476562 24.902344 28.585938 24.492188 C 28.65625 24.210938 28.585938 23.9375 28.382812 23.722656 C 28.253906 23.582031 28.082031 23.46875 27.667969 23.253906 C 27.15625 22.980469 27.042969 22.886719 27.027344 22.6875 C 27.011719 22.507812 27.132812 22.347656 27.332031 22.289062 C 27.730469 22.171875 28.207031 22.519531 28.316406 23.003906 C 28.335938 23.09375 28.34375 23.101562 28.386719 23.101562 L 28.433594 23.101562 L 28.421875 22.78125 C 28.414062 22.605469 28.410156 22.382812 28.410156 22.285156 C 28.410156 22.132812 28.40625 22.113281 28.375 22.113281 C 28.351562 22.113281 28.335938 22.136719 28.320312 22.1875 C 28.273438 22.34375 28.21875 22.351562 27.960938 22.234375 C 27.878906 22.199219 27.761719 22.15625 27.699219 22.144531 C 27.5625 22.109375 27.34375 22.109375 27.214844 22.140625 Z M 27.214844 22.140625 "/>
<path style=" stroke:none;fill-rule:nonzero;fill:rgb(0%,0%,0%);fill-opacity:1;" d="M 40.691406 23.292969 C 40.40625 23.941406 40.125 24.5625 40.070312 24.671875 C 39.960938 24.894531 39.859375 25 39.734375 25.039062 C 39.679688 25.054688 39.65625 25.074219 39.65625 25.097656 C 39.65625 25.132812 39.671875 25.136719 40.148438 25.136719 C 40.617188 25.136719 40.636719 25.132812 40.636719 25.101562 C 40.636719 25.070312 40.617188 25.0625 40.542969 25.050781 C 40.203125 25.007812 40.167969 24.878906 40.375 24.421875 L 40.433594 24.296875 L 41.460938 24.296875 L 41.578125 24.5625 C 41.746094 24.964844 41.734375 25.035156 41.476562 25.058594 C 41.375 25.066406 41.359375 25.074219 41.359375 25.101562 C 41.359375 25.132812 41.386719 25.136719 42.070312 25.136719 C 42.738281 25.136719 42.78125 25.132812 42.78125 25.101562 C 42.78125 25.078125 42.753906 25.0625 42.691406 25.046875 C 42.585938 25.015625 42.511719 24.941406 42.414062 24.75 C 42.375 24.667969 42.097656 24.046875 41.800781 23.359375 C 41.5 22.675781 41.25 22.113281 41.238281 22.113281 C 41.222656 22.113281 40.980469 22.648438 40.691406 23.292969 Z M 41.167969 24.125 C 41.050781 24.128906 40.851562 24.128906 40.730469 24.125 L 40.511719 24.121094 L 40.695312 23.710938 C 40.792969 23.484375 40.894531 23.257812 40.917969 23.207031 L 40.953125 23.117188 L 41.171875 23.617188 L 41.386719 24.121094 Z M 41.167969 24.125 "/>
<path style=" stroke:none;fill-rule:nonzero;fill:rgb(0%,0%,0%);fill-opacity:1;" d="M 51.035156 23.292969 C 50.75 23.941406 50.46875 24.5625 50.414062 24.671875 C 50.304688 24.894531 50.207031 25 50.078125 25.039062 C 50.023438 25.054688 50.003906 25.074219 50.003906 25.097656 C 50.003906 25.132812 50.015625 25.136719 50.492188 25.136719 C 50.960938 25.136719 50.980469 25.132812 50.980469 25.101562 C 50.980469 25.070312 50.960938 25.0625 50.886719 25.050781 C 50.550781 25.007812 50.515625 24.878906 50.71875 24.421875 L 50.777344 24.296875 L 51.808594 24.296875 L 51.921875 24.5625 C 52.089844 24.964844 52.078125 25.035156 51.820312 25.058594 C 51.71875 25.066406 51.703125 25.074219 51.703125 25.101562 C 51.703125 25.132812 51.730469 25.136719 52.414062 25.136719 C 53.082031 25.136719 53.125 25.132812 53.125 25.101562 C 53.125 25.078125 53.101562 25.0625 53.035156 25.046875 C 52.929688 25.015625 52.855469 24.941406 52.761719 24.75 C 52.71875 24.667969 52.441406 24.046875 52.144531 23.359375 C 51.84375 22.675781 51.59375 22.113281 51.582031 22.113281 C 51.570312 22.113281 51.324219 22.648438 51.035156 23.292969 Z M 51.511719 24.125 C 51.394531 24.128906 51.195312 24.128906 51.074219 24.125 L 50.855469 24.121094 L 51.039062 23.710938 C 51.136719 23.484375 51.238281 23.257812 51.261719 23.207031 L 51.296875 23.117188 L 51.515625 23.617188 L 51.730469 24.121094 Z M 51.511719 24.125 "/>
<path style=" stroke:none;fill-rule:nonzero;fill:rgb(0%,0%,0%);fill-opacity:1;" d="M 13.855469 22.203125 C 13.855469 22.234375 13.871094 22.242188 13.972656 22.25 C 14.109375 22.265625 14.191406 22.304688 14.226562 22.371094 C 14.246094 22.410156 14.25 22.664062 14.25 23.664062 L 14.25 24.910156 L 14.195312 24.96875 C 14.132812 25.03125 14.042969 25.058594 13.921875 25.0625 C 13.867188 25.0625 13.855469 25.070312 13.855469 25.097656 C 13.855469 25.136719 13.867188 25.136719 14.691406 25.136719 C 15.601562 25.136719 15.773438 25.121094 16.007812 25.035156 C 16.371094 24.894531 16.554688 24.65625 16.554688 24.324219 C 16.558594 24.1875 16.550781 24.15625 16.5 24.046875 C 16.398438 23.84375 16.253906 23.738281 15.914062 23.632812 L 15.75 23.582031 L 15.871094 23.542969 C 16.148438 23.449219 16.277344 23.347656 16.367188 23.167969 C 16.421875 23.058594 16.425781 23.039062 16.417969 22.894531 C 16.410156 22.769531 16.398438 22.710938 16.359375 22.628906 C 16.292969 22.496094 16.160156 22.359375 16.035156 22.292969 C 15.828125 22.1875 15.789062 22.183594 14.78125 22.175781 C 13.875 22.167969 13.855469 22.167969 13.855469 22.203125 Z M 15.347656 22.367188 C 15.5 22.414062 15.628906 22.550781 15.671875 22.714844 C 15.714844 22.867188 15.703125 23.078125 15.648438 23.199219 C 15.605469 23.300781 15.5 23.40625 15.398438 23.457031 C 15.316406 23.496094 15.128906 23.53125 15.011719 23.53125 L 14.945312 23.53125 L 14.945312 22.316406 L 15.097656 22.324219 C 15.179688 22.332031 15.292969 22.351562 15.347656 22.367188 Z M 15.261719 23.703125 C 15.503906 23.738281 15.636719 23.832031 15.730469 24.03125 C 15.796875 24.167969 15.8125 24.40625 15.765625 24.5625 C 15.710938 24.753906 15.5625 24.902344 15.367188 24.957031 C 15.238281 24.992188 15.144531 24.992188 15.0625 24.957031 C 14.949219 24.910156 14.945312 24.875 14.945312 24.242188 L 14.945312 23.679688 L 15.039062 23.679688 C 15.085938 23.679688 15.191406 23.691406 15.261719 23.703125 Z M 15.261719 23.703125 "/>
<path style=" stroke:none;fill-rule:nonzero;fill:rgb(0%,0%,0%);fill-opacity:1;" d="M 20.246094 22.203125 C 20.246094 22.234375 20.261719 22.242188 20.363281 22.25 C 20.429688 22.257812 20.507812 22.277344 20.542969 22.292969 C 20.652344 22.351562 20.652344 22.332031 20.652344 23.652344 C 20.652344 24.976562 20.652344 24.957031 20.542969 25.015625 C 20.507812 25.03125 20.429688 25.050781 20.363281 25.054688 C 20.265625 25.066406 20.246094 25.074219 20.246094 25.101562 C 20.246094 25.132812 20.277344 25.136719 21.003906 25.136719 C 21.726562 25.136719 21.757812 25.132812 21.757812 25.101562 C 21.757812 25.074219 21.738281 25.066406 21.640625 25.054688 C 21.574219 25.046875 21.496094 25.03125 21.464844 25.011719 C 21.363281 24.953125 21.363281 24.949219 21.355469 24.347656 L 21.351562 23.792969 L 21.546875 23.800781 L 22.484375 25.136719 L 23.402344 25.136719 L 23.402344 25.089844 C 23.402344 25.054688 23.386719 25.042969 23.320312 25.023438 C 23.261719 25.007812 23.214844 24.972656 23.148438 24.90625 C 23.074219 24.828125 22.3125 23.769531 22.3125 23.746094 C 22.3125 23.742188 22.34375 23.730469 22.382812 23.71875 C 22.699219 23.613281 22.890625 23.410156 22.941406 23.117188 C 23.019531 22.695312 22.738281 22.316406 22.277344 22.214844 C 22.160156 22.191406 21.96875 22.183594 21.191406 22.175781 C 20.261719 22.167969 20.246094 22.167969 20.246094 22.203125 Z M 21.910156 22.375 C 21.984375 22.402344 22.039062 22.441406 22.089844 22.5 C 22.199219 22.625 22.230469 22.734375 22.230469 23 C 22.230469 23.207031 22.226562 23.230469 22.179688 23.332031 C 22.117188 23.460938 22.003906 23.558594 21.878906 23.597656 C 21.828125 23.613281 21.6875 23.632812 21.570312 23.636719 L 21.351562 23.648438 L 21.351562 22.316406 L 21.582031 22.324219 C 21.75 22.332031 21.832031 22.34375 21.910156 22.375 Z M 21.910156 22.375 "/>
<path style=" stroke:none;fill-rule:nonzero;fill:rgb(0%,0%,0%);fill-opacity:1;" d="M 23.457031 22.207031 C 23.457031 22.234375 23.476562 22.242188 23.578125 22.25 C 23.640625 22.253906 23.722656 22.277344 23.753906 22.292969 C 23.871094 22.363281 23.867188 22.320312 23.863281 23.675781 C 23.855469 24.8125 23.855469 24.90625 23.824219 24.953125 C 23.78125 25.015625 23.710938 25.042969 23.574219 25.058594 C 23.476562 25.066406 23.457031 25.074219 23.457031 25.101562 C 23.457031 25.132812 23.5 25.136719 24.722656 25.136719 L 25.988281 25.136719 L 26 25.09375 C 26.007812 25.042969 26.117188 24.242188 26.117188 24.207031 C 26.117188 24.195312 26.105469 24.183594 26.082031 24.183594 C 26.058594 24.183594 26.039062 24.21875 26 24.320312 C 25.910156 24.574219 25.753906 24.765625 25.5625 24.867188 C 25.390625 24.953125 25.277344 24.976562 24.980469 24.976562 L 24.699219 24.976562 L 24.644531 24.925781 C 24.578125 24.859375 24.570312 24.773438 24.570312 24.1875 L 24.566406 23.714844 L 24.675781 23.722656 C 24.738281 23.730469 24.820312 23.75 24.859375 23.765625 C 25.007812 23.824219 25.117188 24.007812 25.171875 24.277344 C 25.199219 24.414062 25.207031 24.425781 25.246094 24.425781 L 25.289062 24.425781 L 25.289062 22.859375 L 25.246094 22.859375 C 25.207031 22.859375 25.199219 22.875 25.171875 23.019531 C 25.136719 23.21875 25.050781 23.402344 24.964844 23.46875 C 24.886719 23.527344 24.753906 23.570312 24.644531 23.570312 L 24.566406 23.570312 L 24.566406 22.359375 L 24.832031 22.359375 C 25.15625 22.359375 25.289062 22.378906 25.433594 22.441406 C 25.628906 22.53125 25.746094 22.699219 25.808594 22.976562 C 25.828125 23.050781 25.835938 23.066406 25.871094 23.066406 L 25.914062 23.066406 L 25.914062 22.171875 L 24.6875 22.171875 C 23.5 22.171875 23.457031 22.171875 23.457031 22.207031 Z M 23.457031 22.207031 "/>
<path style=" stroke:none;fill-rule:nonzero;fill:rgb(0%,0%,0%);fill-opacity:1;" d="M 29.941406 22.207031 C 29.941406 22.242188 29.953125 22.246094 30.039062 22.246094 C 30.15625 22.246094 30.292969 22.308594 30.324219 22.375 C 30.34375 22.410156 30.347656 22.714844 30.347656 23.671875 L 30.347656 24.917969 L 30.285156 24.976562 C 30.21875 25.039062 30.15625 25.0625 30.023438 25.0625 C 29.953125 25.0625 29.941406 25.066406 29.941406 25.101562 C 29.941406 25.136719 29.945312 25.136719 30.796875 25.132812 L 31.652344 25.125 L 31.835938 25.074219 C 32.4375 24.910156 32.785156 24.53125 32.878906 23.9375 C 32.914062 23.738281 32.894531 23.375 32.84375 23.195312 C 32.71875 22.761719 32.425781 22.433594 32.03125 22.289062 C 31.769531 22.191406 31.710938 22.1875 30.796875 22.175781 L 29.941406 22.167969 Z M 31.386719 22.339844 C 31.5625 22.367188 31.667969 22.417969 31.78125 22.535156 C 31.996094 22.75 32.121094 23.171875 32.121094 23.679688 C 32.121094 24.324219 31.9375 24.777344 31.625 24.917969 C 31.488281 24.980469 31.292969 25 31.191406 24.96875 C 31.0625 24.925781 31.070312 25.003906 31.070312 23.59375 L 31.070312 22.320312 L 31.164062 22.320312 C 31.214844 22.320312 31.316406 22.328125 31.386719 22.339844 Z M 31.386719 22.339844 "/>
<path style=" stroke:none;fill-rule:nonzero;fill:rgb(0%,0%,0%);fill-opacity:1;" d="M 33.191406 22.207031 C 33.191406 22.234375 33.210938 22.242188 33.3125 22.25 C 33.375 22.253906 33.457031 22.277344 33.488281 22.292969 C 33.605469 22.363281 33.601562 22.320312 33.597656 23.675781 C 33.589844 24.8125 33.589844 24.90625 33.558594 24.953125 C 33.515625 25.015625 33.445312 25.042969 33.308594 25.058594 C 33.210938 25.066406 33.191406 25.074219 33.191406 25.101562 C 33.191406 25.132812 33.234375 25.136719 34.457031 25.136719 L 35.722656 25.136719 L 35.734375 25.09375 C 35.742188 25.042969 35.851562 24.242188 35.851562 24.207031 C 35.851562 24.195312 35.839844 24.183594 35.816406 24.183594 C 35.792969 24.183594 35.773438 24.21875 35.734375 24.320312 C 35.644531 24.574219 35.488281 24.765625 35.300781 24.867188 C 35.125 24.953125 35.011719 24.976562 34.714844 24.976562 L 34.433594 24.976562 L 34.378906 24.925781 C 34.3125 24.859375 34.304688 24.773438 34.304688 24.1875 L 34.300781 23.714844 L 34.410156 23.722656 C 34.472656 23.730469 34.554688 23.75 34.59375 23.765625 C 34.742188 23.824219 34.851562 24.007812 34.90625 24.277344 C 34.933594 24.414062 34.941406 24.425781 34.980469 24.425781 L 35.023438 24.425781 L 35.023438 22.859375 L 34.980469 22.859375 C 34.941406 22.859375 34.933594 22.875 34.90625 23.019531 C 34.871094 23.21875 34.785156 23.402344 34.699219 23.46875 C 34.621094 23.527344 34.488281 23.570312 34.378906 23.570312 L 34.300781 23.570312 L 34.300781 22.359375 L 34.566406 22.359375 C 34.890625 22.359375 35.023438 22.378906 35.167969 22.441406 C 35.363281 22.53125 35.480469 22.699219 35.542969 22.976562 C 35.5625 23.050781 35.570312 23.066406 35.605469 23.066406 L 35.648438 23.066406 L 35.648438 22.171875 L 34.421875 22.171875 C 33.234375 22.171875 33.191406 22.171875 33.191406 22.207031 Z M 33.191406 22.207031 "/>
<path style=" stroke:none;fill-rule:nonzero;fill:rgb(0%,0%,0%);fill-opacity:1;" d="M 36.128906 22.207031 C 36.128906 22.234375 36.148438 22.242188 36.257812 22.25 C 36.398438 22.261719 36.460938 22.289062 36.511719 22.371094 C 36.542969 22.417969 36.546875 22.507812 36.546875 23.652344 C 36.546875 24.800781 36.542969 24.890625 36.511719 24.9375 C 36.460938 25.015625 36.398438 25.046875 36.257812 25.058594 C 36.148438 25.066406 36.128906 25.070312 36.128906 25.101562 C 36.128906 25.132812 36.175781 25.136719 37.4375 25.136719 L 38.746094 25.136719 L 38.855469 24.089844 L 38.8125 24.09375 C 38.773438 24.101562 38.757812 24.125 38.707031 24.269531 C 38.558594 24.691406 38.382812 24.882812 38.089844 24.949219 C 37.96875 24.972656 37.492188 24.972656 37.398438 24.949219 C 37.257812 24.910156 37.265625 24.976562 37.265625 23.625 C 37.265625 22.507812 37.269531 22.417969 37.300781 22.371094 C 37.351562 22.289062 37.414062 22.257812 37.5625 22.25 C 37.683594 22.242188 37.699219 22.234375 37.699219 22.207031 C 37.699219 22.171875 37.667969 22.171875 36.914062 22.171875 C 36.160156 22.171875 36.128906 22.171875 36.128906 22.207031 Z M 36.128906 22.207031 "/>
<path style=" stroke:none;fill-rule:nonzero;fill:rgb(0%,0%,0%);fill-opacity:1;" d="M 42.910156 22.207031 C 42.910156 22.234375 42.925781 22.242188 43.039062 22.25 C 43.175781 22.261719 43.238281 22.289062 43.292969 22.371094 C 43.324219 22.417969 43.324219 22.507812 43.324219 23.652344 C 43.324219 24.800781 43.324219 24.890625 43.292969 24.9375 C 43.238281 25.015625 43.175781 25.046875 43.039062 25.058594 C 42.925781 25.066406 42.910156 25.070312 42.910156 25.101562 C 42.910156 25.132812 42.953125 25.136719 44.21875 25.136719 L 45.523438 25.136719 L 45.578125 24.613281 L 45.636719 24.089844 L 45.589844 24.09375 C 45.550781 24.101562 45.539062 24.125 45.484375 24.269531 C 45.339844 24.691406 45.164062 24.882812 44.871094 24.949219 C 44.746094 24.972656 44.273438 24.972656 44.179688 24.949219 C 44.039062 24.910156 44.046875 24.976562 44.046875 23.625 C 44.046875 22.507812 44.046875 22.417969 44.078125 22.371094 C 44.132812 22.289062 44.191406 22.257812 44.34375 22.25 C 44.460938 22.242188 44.480469 22.234375 44.480469 22.207031 C 44.480469 22.171875 44.449219 22.171875 43.695312 22.171875 C 42.941406 22.171875 42.910156 22.171875 42.910156 22.207031 Z M 42.910156 22.207031 "/>
<path style=" stroke:none;fill-rule:nonzero;fill:rgb(0%,0%,0%);fill-opacity:1;" d="M 45.882812 22.207031 C 45.882812 22.238281 45.894531 22.246094 45.960938 22.246094 C 46.082031 22.246094 46.164062 22.277344 46.226562 22.339844 L 46.28125 22.398438 L 46.285156 23.570312 C 46.289062 24.398438 46.285156 24.769531 46.269531 24.824219 C 46.234375 24.957031 46.085938 25.0625 45.929688 25.0625 C 45.894531 25.0625 45.882812 25.070312 45.882812 25.097656 C 45.882812 25.136719 45.894531 25.136719 46.382812 25.136719 C 46.867188 25.136719 46.878906 25.136719 46.878906 25.097656 C 46.878906 25.070312 46.867188 25.0625 46.832031 25.0625 C 46.746094 25.0625 46.636719 25.023438 46.570312 24.976562 C 46.453125 24.882812 46.453125 24.898438 46.460938 23.625 L 46.464844 22.480469 L 47.03125 23.800781 C 47.390625 24.648438 47.605469 25.128906 47.621094 25.132812 C 47.644531 25.136719 47.789062 24.808594 48.199219 23.816406 C 48.503906 23.09375 48.757812 22.488281 48.769531 22.480469 C 48.78125 22.46875 48.78125 22.890625 48.78125 23.664062 C 48.773438 24.835938 48.773438 24.867188 48.734375 24.929688 C 48.6875 25.015625 48.617188 25.046875 48.472656 25.058594 C 48.375 25.066406 48.359375 25.070312 48.359375 25.101562 C 48.359375 25.132812 48.386719 25.136719 49.125 25.136719 C 49.859375 25.136719 49.890625 25.132812 49.890625 25.101562 C 49.890625 25.074219 49.871094 25.066406 49.773438 25.058594 C 49.621094 25.042969 49.527344 24.992188 49.503906 24.898438 C 49.488281 24.851562 49.484375 24.441406 49.488281 23.617188 C 49.496094 22.492188 49.496094 22.398438 49.527344 22.355469 C 49.570312 22.289062 49.636719 22.261719 49.777344 22.25 C 49.871094 22.242188 49.890625 22.234375 49.890625 22.207031 C 49.890625 22.171875 49.863281 22.171875 49.292969 22.171875 L 48.699219 22.171875 L 48.304688 23.140625 C 48.085938 23.675781 47.902344 24.105469 47.894531 24.097656 C 47.890625 24.089844 47.710938 23.671875 47.5 23.167969 C 47.289062 22.664062 47.105469 22.234375 47.097656 22.210938 L 47.078125 22.171875 L 46.480469 22.171875 C 45.894531 22.171875 45.882812 22.171875 45.882812 22.207031 Z M 45.882812 22.207031 "/>
<path style=" stroke:none;fill-rule:nonzero;fill:rgb(0%,0%,0%);fill-opacity:1;" d="M 3.902344 26.492188 C 3.640625 26.585938 3.480469 26.867188 3.570312 27.074219 C 3.613281 27.179688 3.738281 27.308594 3.847656 27.355469 L 3.945312 27.402344 L 23.800781 27.414062 C 39.125 27.421875 43.773438 27.429688 44.167969 27.449219 C 44.515625 27.464844 44.820312 27.46875 45.109375 27.457031 C 45.347656 27.449219 45.578125 27.441406 45.625 27.445312 C 45.671875 27.445312 48.320312 27.457031 51.515625 27.464844 C 55.488281 27.480469 57.355469 27.480469 57.417969 27.464844 C 57.46875 27.457031 57.59375 27.402344 57.695312 27.347656 L 57.878906 27.25 L 57.875 27.054688 C 57.867188 26.921875 57.859375 26.839844 57.835938 26.796875 C 57.792969 26.707031 57.65625 26.597656 57.527344 26.550781 L 57.417969 26.507812 L 49.410156 26.496094 C 45.007812 26.488281 32.988281 26.476562 22.703125 26.472656 C 4.378906 26.457031 3.996094 26.460938 3.902344 26.492188 Z M 3.902344 26.492188 "/>
<path style=" stroke:none;fill-rule:nonzero;fill:rgb(0%,0%,0%);fill-opacity:1;" d="M 29.96875 28.261719 C 29.289062 28.304688 28.667969 28.441406 27.992188 28.691406 C 27.332031 28.9375 27.164062 29.011719 26.90625 29.175781 C 26.453125 29.46875 26.167969 29.78125 26 30.179688 C 25.878906 30.460938 25.855469 30.59375 25.851562 30.90625 C 25.851562 31.175781 25.851562 31.191406 25.910156 31.363281 C 25.945312 31.460938 26 31.589844 26.035156 31.652344 C 26.207031 31.964844 26.570312 32.1875 27.046875 32.28125 C 27.117188 32.292969 27.339844 32.300781 27.601562 32.300781 L 28.039062 32.296875 L 28.03125 32.496094 C 28.015625 32.851562 28.011719 32.855469 27.921875 32.9375 C 27.878906 32.976562 27.734375 33.082031 27.597656 33.175781 C 27.101562 33.515625 26.9375 33.640625 26.589844 33.929688 C 26.460938 34.042969 26.328125 34.152344 26.300781 34.175781 C 26.246094 34.21875 26.246094 34.21875 26.148438 34.1875 C 25.433594 33.949219 24.386719 33.203125 24.035156 32.6875 C 23.6875 32.167969 23.519531 31.480469 23.535156 30.664062 L 23.542969 30.421875 L 23.625 30.417969 C 23.871094 30.402344 24.058594 30.371094 24.140625 30.328125 C 24.351562 30.222656 24.421875 29.976562 24.300781 29.78125 C 24.265625 29.722656 24.222656 29.6875 24.144531 29.652344 L 24.039062 29.601562 L 17.667969 29.601562 L 17.589844 29.652344 C 17.433594 29.757812 17.355469 29.917969 17.398438 30.058594 C 17.425781 30.152344 17.546875 30.289062 17.65625 30.34375 C 17.738281 30.386719 17.753906 30.386719 18.472656 30.394531 L 19.199219 30.402344 L 19.195312 30.945312 C 19.183594 31.878906 19.25 32.507812 19.433594 33.246094 C 19.652344 34.136719 20.019531 34.925781 20.550781 35.640625 C 21.140625 36.433594 21.828125 37.101562 22.957031 37.972656 C 23.046875 38.046875 23.121094 38.113281 23.121094 38.128906 C 23.117188 38.136719 22.988281 38.257812 22.832031 38.390625 C 21.863281 39.203125 20.859375 40.277344 20.078125 41.339844 C 19.5625 42.035156 19.507812 42.144531 19.570312 42.359375 C 19.59375 42.441406 19.621094 42.484375 19.714844 42.578125 C 19.777344 42.640625 19.878906 42.722656 19.9375 42.757812 C 20.019531 42.8125 20.910156 43.445312 21.050781 43.554688 C 21.082031 43.578125 21.117188 43.660156 21.175781 43.867188 C 21.375 44.546875 21.730469 45.347656 22.125 46 C 22.207031 46.136719 22.277344 46.253906 22.277344 46.265625 C 22.277344 46.273438 21.785156 46.28125 21.183594 46.285156 L 20.085938 46.289062 L 19.980469 46.34375 C 19.855469 46.40625 19.78125 46.511719 19.769531 46.652344 C 19.742188 46.90625 19.90625 47.070312 20.21875 47.121094 C 20.308594 47.132812 21.472656 47.140625 24.011719 47.136719 L 27.679688 47.128906 L 27.785156 47.085938 C 27.910156 47.035156 28.011719 46.953125 28.050781 46.871094 C 28.113281 46.75 28.078125 46.523438 27.980469 46.417969 C 27.933594 46.367188 27.765625 46.308594 27.585938 46.28125 C 27.515625 46.269531 27.457031 46.257812 27.453125 46.253906 C 27.449219 46.25 27.4375 46.191406 27.425781 46.121094 C 27.402344 45.980469 27.414062 45.648438 27.449219 45.421875 L 27.46875 45.28125 L 28.21875 45.269531 C 28.628906 45.261719 28.976562 45.261719 28.984375 45.265625 C 29.003906 45.277344 29.003906 46.050781 28.984375 46.160156 C 28.972656 46.230469 28.96875 46.230469 28.804688 46.289062 C 28.605469 46.363281 28.5625 46.382812 28.496094 46.445312 C 28.390625 46.542969 28.359375 46.679688 28.410156 46.8125 C 28.460938 46.949219 28.648438 47.082031 28.84375 47.117188 C 28.992188 47.148438 36.238281 47.148438 36.367188 47.117188 C 36.546875 47.082031 36.722656 46.921875 36.75 46.773438 C 36.765625 46.679688 36.710938 46.546875 36.613281 46.445312 C 36.472656 46.304688 36.445312 46.300781 35.597656 46.296875 C 35.195312 46.296875 34.730469 46.289062 34.566406 46.28125 L 34.269531 46.273438 L 34.40625 46.085938 C 34.578125 45.855469 34.714844 45.632812 34.832031 45.394531 C 34.996094 45.0625 35.0625 44.839844 35.125 44.371094 C 35.140625 44.246094 35.160156 44.140625 35.164062 44.132812 C 35.164062 44.128906 35.210938 44.105469 35.265625 44.089844 C 35.386719 44.050781 35.902344 43.808594 36.089844 43.703125 C 36.167969 43.660156 36.285156 43.574219 36.347656 43.511719 C 36.460938 43.398438 36.460938 43.398438 36.460938 43.300781 C 36.460938 43.195312 36.378906 42.917969 36.023438 41.878906 C 35.691406 40.898438 35.457031 40.335938 35.1875 39.871094 C 35.09375 39.710938 35.003906 39.558594 34.992188 39.539062 C 34.964844 39.5 34.972656 39.496094 35.183594 39.417969 C 36.085938 39.085938 36.886719 38.652344 37.671875 38.058594 C 38.289062 37.59375 39.121094 36.808594 39.558594 36.277344 C 40.1875 35.511719 40.699219 34.539062 41.074219 33.402344 C 41.320312 32.652344 41.53125 31.636719 41.628906 30.71875 L 41.664062 30.414062 L 42.394531 30.414062 C 43.089844 30.414062 43.132812 30.410156 43.230469 30.375 C 43.414062 30.304688 43.507812 30.164062 43.496094 29.976562 C 43.492188 29.882812 43.476562 29.84375 43.4375 29.789062 C 43.375 29.707031 43.261719 29.640625 43.128906 29.609375 C 43.054688 29.597656 42.210938 29.59375 39.925781 29.597656 L 36.824219 29.601562 L 36.734375 29.648438 C 36.574219 29.726562 36.507812 29.890625 36.554688 30.097656 C 36.582031 30.234375 36.644531 30.308594 36.769531 30.359375 C 36.875 30.402344 36.898438 30.402344 37.566406 30.410156 L 38.253906 30.414062 L 38.253906 30.515625 C 38.253906 30.921875 37.972656 31.546875 37.398438 32.417969 C 36.851562 33.246094 36.414062 33.722656 35.742188 34.21875 C 34.867188 34.867188 33.355469 35.417969 32.039062 35.566406 L 31.945312 35.578125 L 31.945312 35.480469 C 31.945312 35.425781 31.9375 35.28125 31.933594 35.160156 C 31.929688 34.945312 31.929688 34.929688 31.976562 34.839844 C 32.066406 34.664062 32.226562 34.597656 32.375 34.679688 C 32.414062 34.699219 32.53125 34.761719 32.640625 34.820312 C 32.933594 34.976562 33.140625 35.042969 33.390625 35.050781 C 33.605469 35.0625 33.734375 35.042969 34.007812 34.953125 C 34.570312 34.773438 35.078125 34.347656 35.40625 33.769531 C 35.683594 33.289062 35.769531 32.984375 35.769531 32.453125 C 35.769531 31.984375 35.714844 31.714844 35.519531 31.21875 C 35.230469 30.492188 34.855469 29.984375 34.246094 29.484375 C 33.855469 29.167969 33.378906 28.886719 33.046875 28.773438 C 32.132812 28.464844 31.652344 28.347656 31.042969 28.289062 C 30.820312 28.265625 30.148438 28.25 29.96875 28.261719 Z M 31.441406 29.183594 C 32.410156 29.277344 33.328125 29.679688 33.890625 30.257812 C 34.464844 30.847656 34.800781 31.488281 34.882812 32.136719 C 34.898438 32.269531 34.898438 32.621094 34.882812 32.742188 C 34.855469 32.964844 34.742188 33.246094 34.605469 33.457031 C 34.410156 33.746094 34.199219 33.957031 33.957031 34.101562 C 33.472656 34.394531 33.148438 34.316406 32.640625 33.789062 C 32.410156 33.554688 32.40625 33.550781 32.296875 33.527344 C 32.167969 33.5 31.992188 33.523438 31.917969 33.578125 C 31.894531 33.601562 31.820312 33.691406 31.757812 33.789062 C 31.628906 33.984375 31.488281 34.136719 31.394531 34.1875 L 31.332031 34.222656 L 31.121094 34.039062 C 30.585938 33.5625 30.167969 33.328125 29.3125 33.011719 C 29.21875 32.976562 29.082031 32.921875 29.011719 32.890625 L 28.890625 32.828125 L 28.898438 32.765625 C 28.90625 32.726562 28.941406 32.558594 28.972656 32.390625 C 29.046875 32.035156 29.070312 31.800781 29.039062 31.6875 C 29 31.542969 28.816406 31.4375 28.605469 31.4375 C 28.554688 31.4375 28.382812 31.457031 28.222656 31.476562 C 27.574219 31.558594 27.078125 31.542969 26.933594 31.421875 C 26.792969 31.3125 26.710938 31.113281 26.710938 30.90625 C 26.710938 30.574219 26.945312 30.140625 27.25 29.917969 C 27.484375 29.746094 27.800781 29.59375 28.121094 29.488281 C 28.5625 29.355469 29.28125 29.21875 29.773438 29.183594 C 30.085938 29.160156 31.210938 29.160156 31.441406 29.183594 Z M 22.601562 30.71875 C 22.601562 31.136719 22.625 31.335938 22.710938 31.746094 C 22.796875 32.132812 22.875 32.375 23.035156 32.695312 C 23.226562 33.09375 23.484375 33.453125 23.75 33.695312 C 24.152344 34.0625 24.945312 34.574219 25.492188 34.824219 C 25.597656 34.871094 25.691406 34.917969 25.699219 34.925781 C 25.707031 34.933594 25.699219 35 25.675781 35.078125 C 25.59375 35.382812 25.585938 35.710938 25.65625 36.082031 C 25.839844 37.058594 26.566406 37.855469 27.582031 38.199219 C 27.945312 38.320312 28.347656 38.375 28.894531 38.375 C 29.746094 38.375 30.328125 38.226562 30.867188 37.878906 C 31.289062 37.597656 31.714844 37.023438 31.863281 36.535156 C 31.898438 36.40625 31.90625 36.398438 31.960938 36.390625 C 31.996094 36.386719 32.167969 36.359375 32.34375 36.332031 C 33.550781 36.152344 34.519531 35.859375 35.410156 35.410156 C 36.339844 34.941406 37.175781 34.25 37.742188 33.484375 C 38.289062 32.746094 38.632812 32.171875 38.910156 31.523438 C 39.054688 31.183594 39.136719 30.941406 39.25 30.492188 L 39.273438 30.414062 L 40 30.414062 C 40.835938 30.414062 40.746094 30.386719 40.710938 30.613281 C 40.703125 30.683594 40.679688 30.851562 40.664062 30.992188 C 40.523438 32.195312 40.117188 33.554688 39.597656 34.550781 C 39.25 35.226562 38.902344 35.691406 38.285156 36.316406 C 37.171875 37.4375 36.253906 38.070312 34.984375 38.582031 C 34.703125 38.699219 34.316406 38.796875 34.25 38.773438 C 34.234375 38.765625 34.226562 38.769531 34.234375 38.777344 C 34.242188 38.785156 34.195312 38.804688 34.132812 38.816406 C 34 38.84375 33.914062 38.898438 33.851562 38.996094 C 33.734375 39.179688 33.773438 39.300781 34.140625 39.839844 C 34.3125 40.089844 34.542969 40.519531 34.707031 40.890625 C 34.882812 41.285156 35.4375 42.898438 35.449219 43.035156 C 35.457031 43.097656 35.449219 43.105469 35.355469 43.152344 C 35.238281 43.207031 34.972656 43.316406 34.707031 43.414062 C 33.554688 43.84375 31.875 44.195312 30.355469 44.332031 C 29.554688 44.402344 29.230469 44.421875 28.390625 44.429688 C 27.050781 44.445312 26.277344 44.382812 25.277344 44.183594 C 23.839844 43.894531 22.527344 43.398438 21.410156 42.714844 C 21.230469 42.609375 20.980469 42.457031 20.855469 42.382812 C 20.726562 42.308594 20.613281 42.242188 20.597656 42.230469 C 20.582031 42.214844 20.589844 42.1875 20.632812 42.105469 C 20.773438 41.859375 21.199219 41.300781 21.507812 40.96875 C 21.578125 40.890625 21.683594 40.765625 21.738281 40.695312 C 22.207031 40.097656 22.863281 39.441406 23.507812 38.921875 C 23.851562 38.644531 23.90625 38.605469 24.113281 38.5 C 24.308594 38.398438 24.34375 38.375 24.40625 38.273438 C 24.488281 38.152344 24.464844 37.984375 24.347656 37.859375 C 24.324219 37.835938 24.171875 37.734375 24.011719 37.636719 C 23.632812 37.410156 23.304688 37.171875 22.875 36.8125 C 21.941406 36.023438 21.308594 35.289062 20.894531 34.515625 C 20.347656 33.507812 20.125 32.550781 20.125 31.222656 C 20.125 30.75 20.140625 30.527344 20.183594 30.386719 C 20.191406 30.359375 20.265625 30.355469 21.394531 30.355469 L 22.601562 30.355469 Z M 28.761719 33.628906 C 28.875 33.667969 29.015625 33.71875 29.070312 33.742188 C 29.121094 33.765625 29.167969 33.78125 29.167969 33.777344 C 29.167969 33.773438 29.222656 33.796875 29.292969 33.832031 C 29.359375 33.867188 29.445312 33.90625 29.480469 33.921875 C 29.570312 33.957031 29.933594 34.15625 30.042969 34.230469 C 30.257812 34.371094 30.324219 34.421875 30.5 34.5625 C 30.605469 34.644531 30.765625 34.792969 30.859375 34.886719 C 31.003906 35.03125 31.03125 35.070312 31.039062 35.136719 C 31.046875 35.179688 31.050781 35.429688 31.050781 35.695312 C 31.050781 36.191406 31.03125 36.359375 30.964844 36.527344 C 30.773438 37.019531 30.265625 37.429688 29.695312 37.554688 C 29.46875 37.605469 28.578125 37.617188 28.300781 37.574219 C 27.8125 37.5 27.417969 37.308594 27.097656 37 C 26.917969 36.828125 26.820312 36.703125 26.703125 36.5 C 26.496094 36.140625 26.421875 35.667969 26.515625 35.324219 C 26.589844 35.0625 26.964844 34.652344 27.535156 34.222656 C 27.890625 33.953125 27.960938 33.898438 27.976562 33.898438 C 27.984375 33.898438 28.023438 33.871094 28.070312 33.835938 C 28.113281 33.800781 28.152344 33.769531 28.15625 33.769531 C 28.164062 33.769531 28.226562 33.726562 28.300781 33.679688 C 28.46875 33.566406 28.503906 33.546875 28.527344 33.554688 C 28.539062 33.558594 28.644531 33.59375 28.761719 33.628906 Z M 28.761719 33.628906 "/>
<path style=" stroke:none;fill-rule:nonzero;fill:rgb(0%,0%,0%);fill-opacity:1;" d="M 26.808594 39.457031 C 26.683594 39.507812 26.574219 39.628906 26.535156 39.757812 C 26.511719 39.847656 26.507812 39.871094 26.53125 39.949219 C 26.546875 39.996094 26.582031 40.070312 26.605469 40.109375 C 26.667969 40.203125 26.847656 40.296875 27 40.308594 C 27.097656 40.316406 27.121094 40.3125 27.222656 40.261719 C 27.363281 40.1875 27.476562 40.0625 27.515625 39.929688 C 27.539062 39.835938 27.539062 39.820312 27.511719 39.734375 C 27.4375 39.5 27.066406 39.355469 26.808594 39.457031 Z M 26.808594 39.457031 "/>
<path style=" stroke:none;fill-rule:nonzero;fill:rgb(0%,0%,0%);fill-opacity:1;" d="M 26.230469 40.929688 C 26.03125 40.96875 25.796875 41.136719 25.71875 41.296875 C 25.695312 41.351562 25.683594 41.410156 25.683594 41.535156 C 25.683594 41.6875 25.691406 41.710938 25.738281 41.800781 C 25.800781 41.914062 25.878906 41.984375 26.023438 42.058594 C 26.304688 42.199219 26.601562 42.148438 26.835938 41.914062 C 26.964844 41.789062 27.011719 41.683594 27.011719 41.527344 C 27.011719 41.375 26.964844 41.265625 26.835938 41.136719 C 26.734375 41.035156 26.601562 40.960938 26.46875 40.929688 C 26.375 40.910156 26.34375 40.910156 26.230469 40.929688 Z M 26.230469 40.929688 "/>
</g>
</svg>
